<mxfile host="app.diagrams.net" modified="2023-12-02T03:27:33.988Z" agent="Mozilla/5.0 (Macintosh; Intel Mac OS X 10_15_7) AppleWebKit/537.36 (KHTML, like Gecko) Chrome/119.0.0.0 Safari/537.36" etag="K5E2IWIJOvuOHChDxDA6" version="22.1.5" type="github">
  <diagram name="Page-1" id="47Z6vClJ1hrb-v3k51vj">
    <mxGraphModel dx="993" dy="722" grid="1" gridSize="10" guides="1" tooltips="1" connect="1" arrows="1" fold="1" page="1" pageScale="1" pageWidth="827" pageHeight="1169" math="0" shadow="0">
      <root>
        <mxCell id="0" />
        <mxCell id="1" parent="0" />
        <mxCell id="ckjwvt_8Zc-HGN3SzS_7-1" value="&lt;h2&gt;AWS Cloud&lt;/h2&gt;" style="points=[[0,0],[0.25,0],[0.5,0],[0.75,0],[1,0],[1,0.25],[1,0.5],[1,0.75],[1,1],[0.75,1],[0.5,1],[0.25,1],[0,1],[0,0.75],[0,0.5],[0,0.25]];outlineConnect=0;gradientColor=none;html=1;whiteSpace=wrap;fontSize=12;fontStyle=0;container=1;pointerEvents=0;collapsible=0;recursiveResize=0;shape=mxgraph.aws4.group;grIcon=mxgraph.aws4.group_aws_cloud_alt;strokeColor=#232F3E;fillColor=none;verticalAlign=top;align=left;spacingLeft=30;fontColor=#232F3E;dashed=0;" vertex="1" parent="1">
          <mxGeometry x="370" y="150" width="840" height="650" as="geometry" />
        </mxCell>
        <mxCell id="ckjwvt_8Zc-HGN3SzS_7-2" value="&lt;h2&gt;Region&lt;/h2&gt;" style="sketch=0;outlineConnect=0;gradientColor=none;html=1;whiteSpace=wrap;fontSize=12;fontStyle=0;shape=mxgraph.aws4.group;grIcon=mxgraph.aws4.group_region;strokeColor=#879196;fillColor=none;verticalAlign=top;align=left;spacingLeft=30;fontColor=#879196;dashed=1;" vertex="1" parent="ckjwvt_8Zc-HGN3SzS_7-1">
          <mxGeometry x="130" y="50" width="700" height="580" as="geometry" />
        </mxCell>
        <mxCell id="ckjwvt_8Zc-HGN3SzS_7-3" value="&lt;h3&gt;VPC&lt;/h3&gt;" style="sketch=0;outlineConnect=0;gradientColor=none;html=1;whiteSpace=wrap;fontSize=12;fontStyle=0;shape=mxgraph.aws4.group;grIcon=mxgraph.aws4.group_vpc;strokeColor=#879196;fillColor=none;verticalAlign=top;align=left;spacingLeft=30;fontColor=#879196;dashed=0;" vertex="1" parent="ckjwvt_8Zc-HGN3SzS_7-1">
          <mxGeometry x="160" y="90" width="660" height="530" as="geometry" />
        </mxCell>
        <mxCell id="ckjwvt_8Zc-HGN3SzS_7-4" value="&lt;font style=&quot;font-size: 8px;&quot;&gt;Availability Zone&lt;/font&gt;" style="fillColor=none;strokeColor=#147EBA;dashed=1;verticalAlign=top;fontStyle=0;fontColor=#147EBA;whiteSpace=wrap;html=1;" vertex="1" parent="ckjwvt_8Zc-HGN3SzS_7-1">
          <mxGeometry x="230" y="60" width="220" height="550" as="geometry" />
        </mxCell>
        <mxCell id="ckjwvt_8Zc-HGN3SzS_7-5" value="&lt;font style=&quot;font-size: 8px;&quot;&gt;Availability Zone&lt;/font&gt;" style="fillColor=none;strokeColor=#147EBA;dashed=1;verticalAlign=top;fontStyle=0;fontColor=#147EBA;whiteSpace=wrap;html=1;" vertex="1" parent="ckjwvt_8Zc-HGN3SzS_7-1">
          <mxGeometry x="590" y="60" width="220" height="550" as="geometry" />
        </mxCell>
        <mxCell id="ckjwvt_8Zc-HGN3SzS_7-6" value="&lt;h3&gt;Public subnet 1&lt;/h3&gt;" style="points=[[0,0],[0.25,0],[0.5,0],[0.75,0],[1,0],[1,0.25],[1,0.5],[1,0.75],[1,1],[0.75,1],[0.5,1],[0.25,1],[0,1],[0,0.75],[0,0.5],[0,0.25]];outlineConnect=0;gradientColor=none;html=1;whiteSpace=wrap;fontSize=12;fontStyle=0;container=1;pointerEvents=0;collapsible=0;recursiveResize=0;shape=mxgraph.aws4.group;grIcon=mxgraph.aws4.group_security_group;grStroke=0;strokeColor=#7AA116;fillColor=#F2F6E8;verticalAlign=top;align=left;spacingLeft=30;fontColor=#248814;dashed=0;" vertex="1" parent="ckjwvt_8Zc-HGN3SzS_7-1">
          <mxGeometry x="240" y="130" width="200" height="200" as="geometry" />
        </mxCell>
        <mxCell id="ckjwvt_8Zc-HGN3SzS_7-37" value="&lt;font style=&quot;&quot;&gt;&lt;font style=&quot;font-size: 9px;&quot;&gt;Bastion Host SG&lt;/font&gt;&lt;br&gt;&lt;/font&gt;" style="text;html=1;strokeColor=none;fillColor=none;align=center;verticalAlign=middle;whiteSpace=wrap;rounded=0;" vertex="1" parent="ckjwvt_8Zc-HGN3SzS_7-6">
          <mxGeometry x="52.75" y="40" width="120" height="50" as="geometry" />
        </mxCell>
        <mxCell id="ckjwvt_8Zc-HGN3SzS_7-7" value="&lt;h3&gt;Public subnet 2&lt;/h3&gt;" style="points=[[0,0],[0.25,0],[0.5,0],[0.75,0],[1,0],[1,0.25],[1,0.5],[1,0.75],[1,1],[0.75,1],[0.5,1],[0.25,1],[0,1],[0,0.75],[0,0.5],[0,0.25]];outlineConnect=0;gradientColor=none;html=1;whiteSpace=wrap;fontSize=12;fontStyle=0;container=1;pointerEvents=0;collapsible=0;recursiveResize=0;shape=mxgraph.aws4.group;grIcon=mxgraph.aws4.group_security_group;grStroke=0;strokeColor=#7AA116;fillColor=#F2F6E8;verticalAlign=top;align=left;spacingLeft=30;fontColor=#248814;dashed=0;" vertex="1" parent="ckjwvt_8Zc-HGN3SzS_7-1">
          <mxGeometry x="600" y="130" width="200" height="200" as="geometry" />
        </mxCell>
        <mxCell id="ckjwvt_8Zc-HGN3SzS_7-8" value="Private subnet 1" style="points=[[0,0],[0.25,0],[0.5,0],[0.75,0],[1,0],[1,0.25],[1,0.5],[1,0.75],[1,1],[0.75,1],[0.5,1],[0.25,1],[0,1],[0,0.75],[0,0.5],[0,0.25]];outlineConnect=0;gradientColor=none;html=1;whiteSpace=wrap;fontSize=12;fontStyle=0;container=1;pointerEvents=0;collapsible=0;recursiveResize=0;shape=mxgraph.aws4.group;grIcon=mxgraph.aws4.group_security_group;grStroke=0;strokeColor=#00A4A6;fillColor=#E6F6F7;verticalAlign=top;align=left;spacingLeft=30;fontColor=#147EBA;dashed=0;" vertex="1" parent="ckjwvt_8Zc-HGN3SzS_7-1">
          <mxGeometry x="240" y="340" width="200" height="260" as="geometry" />
        </mxCell>
        <mxCell id="ckjwvt_8Zc-HGN3SzS_7-9" value="Private subnet 2" style="points=[[0,0],[0.25,0],[0.5,0],[0.75,0],[1,0],[1,0.25],[1,0.5],[1,0.75],[1,1],[0.75,1],[0.5,1],[0.25,1],[0,1],[0,0.75],[0,0.5],[0,0.25]];outlineConnect=0;gradientColor=none;html=1;whiteSpace=wrap;fontSize=12;fontStyle=0;container=1;pointerEvents=0;collapsible=0;recursiveResize=0;shape=mxgraph.aws4.group;grIcon=mxgraph.aws4.group_security_group;grStroke=0;strokeColor=#00A4A6;fillColor=#E6F6F7;verticalAlign=top;align=left;spacingLeft=30;fontColor=#147EBA;dashed=0;" vertex="1" parent="ckjwvt_8Zc-HGN3SzS_7-1">
          <mxGeometry x="600" y="340" width="200" height="260" as="geometry" />
        </mxCell>
        <mxCell id="ckjwvt_8Zc-HGN3SzS_7-10" value="" style="rounded=0;whiteSpace=wrap;html=1;strokeColor=#ffa500;shadow=0;opacity=30;" vertex="1" parent="ckjwvt_8Zc-HGN3SzS_7-1">
          <mxGeometry x="305.5" y="192" width="94.5" height="78" as="geometry" />
        </mxCell>
        <mxCell id="ckjwvt_8Zc-HGN3SzS_7-12" value="" style="sketch=0;points=[[0,0,0],[0.25,0,0],[0.5,0,0],[0.75,0,0],[1,0,0],[0,1,0],[0.25,1,0],[0.5,1,0],[0.75,1,0],[1,1,0],[0,0.25,0],[0,0.5,0],[0,0.75,0],[1,0.25,0],[1,0.5,0],[1,0.75,0]];outlineConnect=0;fontColor=#232F3E;fillColor=#ED7100;strokeColor=#ffffff;dashed=0;verticalLabelPosition=bottom;verticalAlign=top;align=center;html=1;fontSize=12;fontStyle=0;aspect=fixed;shape=mxgraph.aws4.resourceIcon;resIcon=mxgraph.aws4.ec2;" vertex="1" parent="ckjwvt_8Zc-HGN3SzS_7-1">
          <mxGeometry x="335.75" y="203" width="34" height="34" as="geometry" />
        </mxCell>
        <mxCell id="ckjwvt_8Zc-HGN3SzS_7-13" value="&lt;font style=&quot;font-size: 8px;&quot;&gt;Bastion Host&lt;/font&gt;" style="text;html=1;strokeColor=none;fillColor=none;align=center;verticalAlign=middle;whiteSpace=wrap;rounded=0;" vertex="1" parent="ckjwvt_8Zc-HGN3SzS_7-1">
          <mxGeometry x="321.25" y="250" width="63" height="10" as="geometry" />
        </mxCell>
        <mxCell id="ckjwvt_8Zc-HGN3SzS_7-18" value="&lt;div style=&quot;text-align: left;&quot;&gt;&lt;span style=&quot;font-size: 9px; background-color: initial;&quot;&gt;ELB SG&lt;/span&gt;&lt;/div&gt;" style="text;html=1;strokeColor=none;fillColor=none;align=center;verticalAlign=middle;whiteSpace=wrap;rounded=0;" vertex="1" parent="ckjwvt_8Zc-HGN3SzS_7-1">
          <mxGeometry x="464" y="182" width="120" height="30" as="geometry" />
        </mxCell>
        <mxCell id="ckjwvt_8Zc-HGN3SzS_7-19" value="" style="rounded=0;whiteSpace=wrap;html=1;strokeColor=#ffa500;shadow=0;opacity=30;" vertex="1" parent="ckjwvt_8Zc-HGN3SzS_7-1">
          <mxGeometry x="464" y="172" width="116" height="108" as="geometry" />
        </mxCell>
        <mxCell id="ckjwvt_8Zc-HGN3SzS_7-20" value="" style="sketch=0;outlineConnect=0;fontColor=#232F3E;gradientColor=none;fillColor=#8C4FFF;strokeColor=none;dashed=0;verticalLabelPosition=bottom;verticalAlign=top;align=center;html=1;fontSize=12;fontStyle=0;aspect=fixed;pointerEvents=1;shape=mxgraph.aws4.application_load_balancer;" vertex="1" parent="ckjwvt_8Zc-HGN3SzS_7-1">
          <mxGeometry x="494" y="206" width="60" height="60" as="geometry" />
        </mxCell>
        <mxCell id="ckjwvt_8Zc-HGN3SzS_7-21" value="" style="rounded=0;whiteSpace=wrap;html=1;strokeColor=#ffa500;shadow=0;opacity=30;" vertex="1" parent="ckjwvt_8Zc-HGN3SzS_7-1">
          <mxGeometry x="343" y="470" width="367" height="110" as="geometry" />
        </mxCell>
        <mxCell id="ckjwvt_8Zc-HGN3SzS_7-22" value="&lt;font style=&quot;&quot;&gt;&lt;font style=&quot;font-size: 11px;&quot;&gt;DatabaseSG&lt;/font&gt;&lt;br&gt;&lt;/font&gt;" style="text;html=1;strokeColor=none;fillColor=none;align=center;verticalAlign=middle;whiteSpace=wrap;rounded=0;" vertex="1" parent="ckjwvt_8Zc-HGN3SzS_7-1">
          <mxGeometry x="460" y="490" width="120" height="80" as="geometry" />
        </mxCell>
        <mxCell id="ckjwvt_8Zc-HGN3SzS_7-23" value="" style="sketch=0;outlineConnect=0;fontColor=#232F3E;gradientColor=none;fillColor=#C925D1;strokeColor=none;dashed=0;verticalLabelPosition=bottom;verticalAlign=top;align=center;html=1;fontSize=12;fontStyle=0;aspect=fixed;pointerEvents=1;shape=mxgraph.aws4.rds_instance;" vertex="1" parent="ckjwvt_8Zc-HGN3SzS_7-1">
          <mxGeometry x="372" y="490" width="48" height="48" as="geometry" />
        </mxCell>
        <mxCell id="ckjwvt_8Zc-HGN3SzS_7-24" value="" style="sketch=0;outlineConnect=0;fontColor=#232F3E;gradientColor=none;fillColor=#C925D1;strokeColor=none;dashed=0;verticalLabelPosition=bottom;verticalAlign=top;align=center;html=1;fontSize=12;fontStyle=0;aspect=fixed;pointerEvents=1;shape=mxgraph.aws4.rds_instance;" vertex="1" parent="ckjwvt_8Zc-HGN3SzS_7-1">
          <mxGeometry x="627.5" y="490" width="48" height="48" as="geometry" />
        </mxCell>
        <mxCell id="ckjwvt_8Zc-HGN3SzS_7-25" value="Primary RDS Instance" style="text;html=1;strokeColor=none;fillColor=none;align=center;verticalAlign=middle;whiteSpace=wrap;rounded=0;" vertex="1" parent="ckjwvt_8Zc-HGN3SzS_7-1">
          <mxGeometry x="356" y="540" width="80" height="30" as="geometry" />
        </mxCell>
        <mxCell id="ckjwvt_8Zc-HGN3SzS_7-26" value="RDS Instance" style="text;html=1;strokeColor=none;fillColor=none;align=center;verticalAlign=middle;whiteSpace=wrap;rounded=0;" vertex="1" parent="ckjwvt_8Zc-HGN3SzS_7-1">
          <mxGeometry x="611.5" y="540" width="80" height="30" as="geometry" />
        </mxCell>
        <mxCell id="ckjwvt_8Zc-HGN3SzS_7-30" value="" style="sketch=0;outlineConnect=0;fontColor=#232F3E;gradientColor=none;fillColor=#8C4FFF;strokeColor=none;dashed=0;verticalLabelPosition=bottom;verticalAlign=top;align=center;html=1;fontSize=12;fontStyle=0;aspect=fixed;pointerEvents=1;shape=mxgraph.aws4.nat_gateway;" vertex="1" parent="ckjwvt_8Zc-HGN3SzS_7-1">
          <mxGeometry x="250" y="272" width="48" height="48" as="geometry" />
        </mxCell>
        <mxCell id="ckjwvt_8Zc-HGN3SzS_7-31" value="" style="outlineConnect=0;dashed=0;verticalLabelPosition=bottom;verticalAlign=top;align=center;html=1;shape=mxgraph.aws3.internet_gateway;fillColor=#F58536;gradientColor=none;" vertex="1" parent="ckjwvt_8Zc-HGN3SzS_7-1">
          <mxGeometry x="493.5" y="60" width="44.5" height="52" as="geometry" />
        </mxCell>
        <mxCell id="ckjwvt_8Zc-HGN3SzS_7-11" value="" style="rounded=0;whiteSpace=wrap;html=1;strokeColor=#ffa500;shadow=0;opacity=30;" vertex="1" parent="ckjwvt_8Zc-HGN3SzS_7-1">
          <mxGeometry x="356.5" y="390" width="340" height="70" as="geometry" />
        </mxCell>
        <mxCell id="ckjwvt_8Zc-HGN3SzS_7-14" value="" style="sketch=0;points=[[0,0,0],[0.25,0,0],[0.5,0,0],[0.75,0,0],[1,0,0],[0,1,0],[0.25,1,0],[0.5,1,0],[0.75,1,0],[1,1,0],[0,0.25,0],[0,0.5,0],[0,0.75,0],[1,0.25,0],[1,0.5,0],[1,0.75,0]];outlineConnect=0;fontColor=#232F3E;fillColor=#ED7100;strokeColor=#ffffff;dashed=0;verticalLabelPosition=bottom;verticalAlign=top;align=center;html=1;fontSize=12;fontStyle=0;aspect=fixed;shape=mxgraph.aws4.resourceIcon;resIcon=mxgraph.aws4.ec2;" vertex="1" parent="ckjwvt_8Zc-HGN3SzS_7-1">
          <mxGeometry x="382.5" y="403" width="34" height="34" as="geometry" />
        </mxCell>
        <mxCell id="ckjwvt_8Zc-HGN3SzS_7-28" value="&lt;font style=&quot;&quot;&gt;&lt;font style=&quot;font-size: 9px;&quot;&gt;ApplicationSG&lt;/font&gt;&lt;br&gt;&lt;/font&gt;" style="text;html=1;strokeColor=none;fillColor=none;align=center;verticalAlign=middle;whiteSpace=wrap;rounded=0;" vertex="1" parent="ckjwvt_8Zc-HGN3SzS_7-1">
          <mxGeometry x="456.5" y="400" width="120" height="50" as="geometry" />
        </mxCell>
        <mxCell id="ckjwvt_8Zc-HGN3SzS_7-16" value="" style="sketch=0;points=[[0,0,0],[0.25,0,0],[0.5,0,0],[0.75,0,0],[1,0,0],[0,1,0],[0.25,1,0],[0.5,1,0],[0.75,1,0],[1,1,0],[0,0.25,0],[0,0.5,0],[0,0.75,0],[1,0.25,0],[1,0.5,0],[1,0.75,0]];outlineConnect=0;fontColor=#232F3E;fillColor=#ED7100;strokeColor=#ffffff;dashed=0;verticalLabelPosition=bottom;verticalAlign=top;align=center;html=1;fontSize=12;fontStyle=0;aspect=fixed;shape=mxgraph.aws4.resourceIcon;resIcon=mxgraph.aws4.ec2;" vertex="1" parent="ckjwvt_8Zc-HGN3SzS_7-1">
          <mxGeometry x="631" y="403" width="34" height="34" as="geometry" />
        </mxCell>
        <mxCell id="ckjwvt_8Zc-HGN3SzS_7-17" value="&lt;font style=&quot;font-size: 8px;&quot;&gt;Ec2&lt;/font&gt;" style="text;html=1;strokeColor=none;fillColor=none;align=center;verticalAlign=middle;whiteSpace=wrap;rounded=0;" vertex="1" parent="ckjwvt_8Zc-HGN3SzS_7-1">
          <mxGeometry x="606.5" y="437" width="73" height="10" as="geometry" />
        </mxCell>
        <mxCell id="ckjwvt_8Zc-HGN3SzS_7-15" value="&lt;font style=&quot;font-size: 8px;&quot;&gt;Ec2&amp;nbsp;&lt;/font&gt;" style="text;html=1;strokeColor=none;fillColor=none;align=center;verticalAlign=middle;whiteSpace=wrap;rounded=0;" vertex="1" parent="ckjwvt_8Zc-HGN3SzS_7-1">
          <mxGeometry x="366.5" y="437" width="68.5" height="10" as="geometry" />
        </mxCell>
        <mxCell id="ckjwvt_8Zc-HGN3SzS_7-39" value="" style="rounded=0;whiteSpace=wrap;html=1;strokeColor=#ffa500;shadow=0;opacity=30;" vertex="1" parent="ckjwvt_8Zc-HGN3SzS_7-1">
          <mxGeometry x="630" y="172" width="150" height="128" as="geometry" />
        </mxCell>
        <mxCell id="ckjwvt_8Zc-HGN3SzS_7-38" value="AWS Cloud9" style="sketch=0;outlineConnect=0;fontColor=#232F3E;gradientColor=none;strokeColor=#ffffff;fillColor=#232F3E;dashed=0;verticalLabelPosition=middle;verticalAlign=bottom;align=center;html=1;whiteSpace=wrap;fontSize=10;fontStyle=1;spacing=3;shape=mxgraph.aws4.productIcon;prIcon=mxgraph.aws4.cloud9;" vertex="1" parent="ckjwvt_8Zc-HGN3SzS_7-1">
          <mxGeometry x="665" y="199" width="70" height="91" as="geometry" />
        </mxCell>
        <mxCell id="ckjwvt_8Zc-HGN3SzS_7-41" value="&lt;font style=&quot;font-size: 10px;&quot;&gt;Cloud9 SG&lt;/font&gt;" style="text;html=1;strokeColor=none;fillColor=none;align=center;verticalAlign=middle;whiteSpace=wrap;rounded=0;" vertex="1" parent="ckjwvt_8Zc-HGN3SzS_7-1">
          <mxGeometry x="650" y="182" width="90" height="10" as="geometry" />
        </mxCell>
        <mxCell id="ckjwvt_8Zc-HGN3SzS_7-42" value="" style="endArrow=classic;html=1;rounded=0;entryX=0.643;entryY=0.67;entryDx=0;entryDy=0;entryPerimeter=0;" edge="1" parent="ckjwvt_8Zc-HGN3SzS_7-1" source="ckjwvt_8Zc-HGN3SzS_7-16" target="ckjwvt_8Zc-HGN3SzS_7-38">
          <mxGeometry width="50" height="50" relative="1" as="geometry">
            <mxPoint x="650" y="380" as="sourcePoint" />
            <mxPoint x="700" y="330" as="targetPoint" />
          </mxGeometry>
        </mxCell>
        <mxCell id="ckjwvt_8Zc-HGN3SzS_7-46" value="" style="outlineConnect=0;dashed=0;verticalLabelPosition=bottom;verticalAlign=top;align=center;html=1;shape=mxgraph.aws3.auto_scaling;fillColor=#F58534;gradientColor=none;" vertex="1" parent="ckjwvt_8Zc-HGN3SzS_7-1">
          <mxGeometry x="489.13" y="306.75" width="69.75" height="66.5" as="geometry" />
        </mxCell>
        <mxCell id="ckjwvt_8Zc-HGN3SzS_7-32" value="Role" style="sketch=0;outlineConnect=0;fontColor=#232F3E;gradientColor=none;strokeColor=#232F3E;fillColor=#ffffff;dashed=0;verticalLabelPosition=bottom;verticalAlign=top;align=center;html=1;fontSize=12;fontStyle=0;aspect=fixed;shape=mxgraph.aws4.resourceIcon;resIcon=mxgraph.aws4.role;" vertex="1" parent="1">
          <mxGeometry x="1320" y="540" width="60" height="60" as="geometry" />
        </mxCell>
        <mxCell id="ckjwvt_8Zc-HGN3SzS_7-33" value="" style="sketch=0;outlineConnect=0;fontColor=#232F3E;gradientColor=none;fillColor=#E7157B;strokeColor=none;dashed=0;verticalLabelPosition=bottom;verticalAlign=top;align=center;html=1;fontSize=12;fontStyle=0;aspect=fixed;pointerEvents=1;shape=mxgraph.aws4.parameter_store;" vertex="1" parent="1">
          <mxGeometry x="1331.92" y="670" width="48.08" height="50" as="geometry" />
        </mxCell>
        <mxCell id="ckjwvt_8Zc-HGN3SzS_7-34" value="" style="endArrow=classic;html=1;rounded=0;exitX=0.5;exitY=1;exitDx=0;exitDy=0;" edge="1" parent="1">
          <mxGeometry width="50" height="50" relative="1" as="geometry">
            <mxPoint x="1345.96" y="610" as="sourcePoint" />
            <mxPoint x="1345.96" y="660" as="targetPoint" />
          </mxGeometry>
        </mxCell>
        <mxCell id="ckjwvt_8Zc-HGN3SzS_7-44" value="" style="line;strokeWidth=2;html=1;" vertex="1" parent="1">
          <mxGeometry x="1040" y="570" width="280" height="10" as="geometry" />
        </mxCell>
        <mxCell id="ckjwvt_8Zc-HGN3SzS_7-45" value="" style="endArrow=classic;html=1;rounded=0;" edge="1" parent="1" target="ckjwvt_8Zc-HGN3SzS_7-24">
          <mxGeometry width="50" height="50" relative="1" as="geometry">
            <mxPoint x="1230" y="590" as="sourcePoint" />
            <mxPoint x="1360" y="430" as="targetPoint" />
          </mxGeometry>
        </mxCell>
      </root>
    </mxGraphModel>
  </diagram>
</mxfile>
